# xmcd
#
# Track frame offsets:
# 150
# 18499
# 35595
# 50309
# 66437
# 80347
# 97918
# 114925
# 129753
# 145890
# 163941
# 179760
# 199272
# 216497
# 229565
# 244558
# 256472
# 277817
# 292328
# 306821
#
# Disc length: 4308 seconds
#
#
# Revision: 0
# Processed by: cddbd v1.5.2PL0 Copyright (c) Steve Scherf et al.
# Submitted via: FreeRIP 2.60 
#
DISCID=2510d214
DTITLE=Various Artist - Greatest Kids' Country Hits
DYEAR=1900
DGENRE=Country
TTITLE0=Better Life
TTITLE1=Suds in the Bucket
TTITLE2=That's What I Love About Sunday
TTITLE3=Something More
TTITLE4=No Shoes, No Shirt, No Problem
TTITLE5=Baby Girl
TTITLE6=Somebody Like You
TTITLE7=THe Way You Love Me
TTITLE8=Write This Down
TTITLE9=This One's For The Girls
TTITLE10=Days Gone By
TTITLE11=She's in Love with the Boy
TTITLE12=Bless the Broken Road
TTITLE13=Up!
TTITLE14=Boot Scootin' Boogie
TTITLE15=Litty Bitty
TTITLE16=Forever And For Always
TTITLE17=I Like It, I Love It
TTITLE18=It's a Great Day to be Alive
TTITLE19=Should've Been A Cowboy
EXTD=
EXTT0=
EXTT1=
EXTT2=
EXTT3=
EXTT4=
EXTT5=
EXTT6=
EXTT7=
EXTT8=
EXTT9=
EXTT10=
EXTT11=
EXTT12=
EXTT13=
EXTT14=
EXTT15=
EXTT16=
EXTT17=
EXTT18=
EXTT19=
PLAYORDER=
